<?xml version="1.0" encoding="iso-8859-1"?>
<!-- Generator: Adobe Illustrator 26.0.1, SVG Export Plug-In . SVG Version: 6.00 Build 0)  -->
<!-- viewBox="0 0 500 500" -->

<svg version="1.1" id="Layer_1" xmlns="http://www.w3.org/2000/svg" xmlns:xlink="http://www.w3.org/1999/xlink" x="0px" y="0px"
	 viewBox="0 180 140 140" style="enable-background:new 0 0 500 500;" xml:space="preserve">
<g>
	<path style="fill:#FEFEFE;" d="M66.962,302.691c-1.524-0.994-2.883-2.181-4.164-3.479c-8.163-8.257-16.347-16.496-24.521-24.736
		c-6.649-5.583-11.863-12.034-12.929-21.042c-0.017-0.144-0.232-0.271-0.348-0.403c1.127-0.11,1.071,0.817,1.176,1.458
		c1.237,7.262,5.197,12.785,10.294,17.579c0,0.006,0.005,0.011,0.011,0.017c0.271,0.249,0.541,0.497,0.812,0.746
		c0.403,0.365,0.812,0.723,1.226,1.082c7.964,8.494,16.447,16.48,24.532,24.852C64.333,300.096,66.432,300.626,66.962,302.691z"/>
	<path style="fill:#FE8065;" d="M69.768,226.566c2.944-2.367,6.552-3.091,10.819-4.251c-2.779-2.629-5.295-4.966-7.762-7.353
		c-2.236-2.164-4.423-4.377-6.622-6.579c-4.496-4.501-4.291-7.456,0.758-11.074c1.104,0,2.209,0,3.313,0
		c1.676,1.093,3.132,2.434,4.537,3.856c8.219,8.322,16.464,16.619,24.701,24.924c6.641,7.092,6.799,19.791,2.887,28.183
		c-0.432,0.926-0.864,2.067-2.263,1.985c-0.029-0.002-0.065-0.131-0.072-0.203c-0.009-0.09,0.009-0.182,0.015-0.273
		c2.65-8.959-0.771-17.424-9.944-21.494c-3.384-5.939-9.785-8.932-16.417-7.77C72.433,226.74,71.092,227.525,69.768,226.566z"/>
	<path style="fill:#3DDCBF;" d="M70.275,302.691h-3.314c-1.524-0.994-2.883-2.181-4.164-3.479
		c-8.163-8.257-16.347-16.496-24.521-24.736c-0.657-0.79-1.254-1.585-1.795-2.391c-0.006-0.006-0.011-0.011-0.011-0.017
		c-5.506-8.179-5.103-17.049-1.469-26.255c0.359-0.917,0.674-2.159,2.137-2.049c0.028,0,0.061,0.138,0.066,0.21
		c0.006,0.094-0.011,0.182-0.017,0.276c-2.347,9.963,0.635,16.706,9.394,21.235c0,0.006,0.006,0.006,0.011,0.011
		c2.557,3.529,5.539,6.489,9.946,7.649c2.336,0.608,4.634,0.817,7.03,0.32c1.27-0.26,2.629-1.005,3.938-0.022
		c-2.955,2.342-6.511,3.192-10.256,4.076c1.154,1.878,2.85,3.131,4.286,4.6c3.203,3.275,6.456,6.5,9.703,9.731
		C75.494,296.075,75.196,299.483,70.275,302.691z"/>
	<path style="fill:#66EDCF;" d="M56.678,222.767c-4.496,4.457-8.908,9.008-13.459,13.409c-2.463,2.38-4.484,5.037-6.031,8.074
		c-2.922,2.883-3.424,6.699-3.882,10.46c-0.795,6.55,0.817,12.537,3.987,18.12c0.309,0.552,0.641,1.099,0.983,1.646
		c-6.649-5.583-11.863-12.034-12.929-21.042c-0.017-0.144-0.232-0.271-0.348-0.403v-6.064c1.005-0.933,0.525-2.253,0.834-3.374
		c1.331-4.866,3.529-9.256,7.058-12.868c5.131-5.247,10.305-10.46,15.58-15.563c3.706-3.584,8.853-2.264,9.853,2.386
		C58.766,219.58,58.17,221.292,56.678,222.767z"/>

	<!-- <path style="fill:#154963;" d="M475,225.447c-5.696,9.506-11.391,19.013-17.09,28.518c-0.508,0.847-0.387,1.777-0.388,2.689
		c-0.007,5.425-0.153,10.855,0.061,16.272c0.104,2.63-1.418,2.159-2.935,2.187c-1.591,0.029-2.999,0.291-2.867-2.257
		c0.234-4.493-0.141-9.02,0.132-13.508c0.213-3.488-0.789-6.376-2.583-9.274c-4.586-7.411-9.001-14.927-13.456-22.419
		c-0.447-0.753-1.192-1.412-1.092-2.426c5.339-0.813,5.353-0.822,7.853,3.339c4.011,6.678,8.001,13.368,12.169,20.337
		c4.194-7.079,8.38-13.83,12.212-20.776c1.395-2.529,2.96-3.692,5.784-3.202c0.71,0.123,1.464-0.013,2.198-0.029
		C475,225.079,475,225.263,475,225.447z"/> -->

	<!-- <path style="fill:#154963;" d="M262.836,225.329c-6.87-0.862-13.79-0.133-20.677-0.425c-2.021-0.083-2.679,0.414-2.64,2.546
		c0.138,7.539,0.05,15.077,0.055,22.621c0,7.627,0.044,15.259-0.039,22.892c-0.017,1.635,0.353,2.226,2.115,2.181
		c6.075-0.133,12.15,0.072,18.219-0.138c13.398-0.464,22.13-8.157,23.753-21.401C285.402,239.152,277.505,227.163,262.836,225.329z
		 M274.395,254.66c-1.469,7.284-6.572,11.625-14.055,12.1c-3.297,0.21-6.622,0.05-9.924,0.193c-1.502,0.066-1.85-0.469-1.828-1.883
		c0.077-5.053,0.033-10.107,0.033-15.16c0-4.871,0.055-9.748-0.033-14.613c-0.028-1.563,0.193-2.336,2.049-2.22
		c4.208,0.265,8.455-0.32,12.636,0.674c5.247,1.243,8.781,4.335,10.51,9.477C275.042,246.989,275.163,250.85,274.395,254.66z"/> -->
	
	<!-- <path style="fill:#154963;" d="M337.719,273.752c-7.373-15.662-14.746-31.319-22.124-46.976c-0.42-0.9-0.674-1.834-2.032-1.867
		c-1.414-0.033-1.596,0.989-2.01,1.861c-5.368,11.338-10.731,22.676-16.093,34.02c-2.209,4.683-4.418,9.367-6.677,14.16
		c9.383,0.663,9.433,0.685,12.918-7.461c0.674-1.574,1.43-2.231,3.214-2.198c5.699,0.127,11.404,0.133,17.104,0
		c1.8-0.044,2.552,0.674,3.253,2.17c1.187,2.546,1.546,6.219,3.86,7.312c2.397,1.132,5.755,0.237,9.03,0.232
		C337.951,274.41,337.868,274.067,337.719,273.752z M306.217,257.339c2.38-5.225,4.716-10.366,7.224-15.872
		c0.591,1.165,0.994,1.883,1.331,2.629c1.955,4.324,3.894,8.66,5.953,13.243H306.217z"/> -->
	
	<!-- <path style="fill:#154963;" d="M228.606,274.211c-7.505-16.005-15.022-31.999-22.527-48.004c-0.381-0.812-0.817-1.298-1.839-1.298
		c-1.038-0.006-1.419,0.508-1.795,1.325c-1.607,3.496-3.253,6.97-4.899,10.449c-5.976,12.658-11.957,25.311-18.153,38.422
		c2.905,0,5.379-0.066,7.853,0.022c1.287,0.044,1.966-0.365,2.452-1.607c0.862-2.215,1.994-4.324,2.933-6.511
		c0.48-1.121,1.077-1.718,2.441-1.701c6.069,0.077,12.139,0.072,18.208,0c1.336-0.017,1.95,0.475,2.436,1.662
		c0.933,2.286,2.054,4.501,3.076,6.749c0.353,0.779,0.696,1.425,1.762,1.403c2.695-0.061,5.396-0.022,8.107-0.022
		C228.634,274.559,228.678,274.36,228.606,274.211z M198.568,257.56c-1.381,0.017-1.568-0.458-1.033-1.624
		c2.181-4.727,4.319-9.471,6.655-14.602c2.507,5.528,4.86,10.714,7.351,16.209C206.979,257.543,202.771,257.516,198.568,257.56z"/> -->
	
	<!-- <path style="fill:#154963;" d="M156.622,276.057c-8.53-0.164-15.03-2.793-19.286-9.792c-0.793-1.304-0.785-2.12,0.679-2.726
		c0.168-0.07,0.325-0.17,0.481-0.266c1.407-0.866,2.748-2.286,4.235-2.459c1.772-0.206,2.061,2.196,3.233,3.274
		c4.22,3.882,9.116,4.701,14.349,3.069c4.494-1.402,5.407-7.508,1.751-10.485c-1.797-1.463-3.922-2.355-6.078-3.175
		c-3.427-1.303-6.858-2.572-9.999-4.547c-5.133-3.228-7.017-7.948-6.068-13.68c0.913-5.519,4.643-8.776,9.854-10.397
		c7.569-2.354,15.778,0.16,20.104,5.969c0.817,1.097,0.862,1.669-0.362,2.284c-0.488,0.245-0.939,0.583-1.363,0.931
		c-2.126,1.742-3.798,2.947-6.416,0.027c-2.109-2.352-5.652-2.434-8.835-1.548c-2.278,0.634-3.922,1.986-4.242,4.506
		c-0.326,2.569,1.065,4.283,3.132,5.325c2.614,1.318,5.382,2.333,8.093,3.457c2.207,0.915,4.383,1.881,6.409,3.167
		c6.072,3.852,8.045,8.361,6.729,15.451c-1.056,5.691-5.296,9.765-11.612,11.021C159.616,275.821,157.77,275.92,156.622,276.057z"/> -->
	
	<!-- <path style="fill:#154963;" d="M410.912,226.384c-0.276-0.63-0.464-1.452-1.441-1.43c-1.11,0.028-1.22,0.961-1.541,1.684
		c-2.568,5.871-5.125,11.747-7.688,17.617c-4.435,10.134-8.875,20.268-13.503,30.85c1.027,0,1.679-0.094,2.297,0.011
		c2.783,0.497,4.374-0.536,5.225-3.319c0.768-2.524,2.115-4.866,3.054-7.345c0.497-1.314,1.149-1.822,2.601-1.8
		c6.252,0.088,12.509,0.099,18.755,0.017c1.546-0.017,2.297,0.53,2.85,1.916c1.221,3.06,2.596,6.058,3.916,9.074
		c0.32,0.746,0.547,1.53,1.679,1.464c1.585-0.088,3.181-0.022,5.086-0.022C424.978,258.554,417.953,242.466,410.912,226.384z
		 M400.419,257.322c2.955-6.909,5.865-13.735,8.974-21.014c3.082,7.251,5.948,14,8.93,21.014H400.419z"/> -->
	
	<path style="fill:#FE9A85;" d="M100.08,255.78c2.568-1.489,2.631-4.269,3.276-6.661c2.22-8.23,0.348-15.838-3.844-23.031
		c7.622,6.183,12.628,13.814,12.644,23.935c0.012,7.352-2.593,13.855-7.701,19.176c-5.092,5.304-10.363,10.438-15.588,15.615
		c-2.524,2.501-6.214,2.733-8.394,0.615c-2.438-2.368-2.286-5.692,0.492-8.512c4.13-4.191,8.279-8.363,12.49-12.472
		C96.094,261.87,98.564,259.198,100.08,255.78z"/>
	
	<!-- <path style="fill:#154963;" d="M365.294,224.959c-4.6-0.055-9.201,0.094-13.79-0.061c-2.038-0.072-2.402,0.674-2.375,2.513
		c0.094,7.533,0.039,15.066,0.039,22.599c0,7.627,0.122,15.254-0.066,22.875c-0.066,2.579,1.348,2.193,2.899,2.237
		c1.668,0.05,2.927,0.16,2.811-2.314c-0.226-4.86,0.022-9.737-0.11-14.602c-0.055-2.06,0.359-3.015,2.679-2.828
		c2.651,0.215,5.329,0.072,7.997,0.039c8.765-0.105,15.176-6.5,15.199-15.127C380.592,231.509,374.191,225.058,365.294,224.959z
		 M366.034,250.192c-3.214,0.171-6.445-0.011-9.659,0.077c-1.425,0.039-1.673-0.613-1.646-1.828
		c0.055-2.756,0.017-5.517,0.017-8.279c0-2.662,0.05-5.335-0.022-7.997c-0.033-1.325,0.237-2.06,1.789-2.01
		c3.22,0.099,6.451-0.077,9.659,0.11c4.976,0.298,8.858,4.727,8.881,9.869C375.08,245.377,371.082,249.927,366.034,250.192z"/> -->
	
	<path style="fill:#FE6C59;" d="M69.768,226.566c3.544-0.575,6.999-1.719,10.705-0.586c3.602,1.101,6.623,2.946,9.034,5.78
		c0.561,0.66,1.611,1.396,0.628,2.525c-7.434-2.206-13.635-0.294-18.944,5.318c-4.539,4.798-9.317,9.37-13.995,14.036
		c-1.691,1.687-3.686,2.421-6.021,1.636c-2.08-0.699-3.351-2.179-3.714-4.374c-0.269-1.625,0.018-3.235,1.148-4.368
		c6.349-6.362,12.384-13.048,19.278-18.851C68.438,227.22,69.138,226.934,69.768,226.566z"/>
	<path style="fill:#2BC5B0;" d="M67.509,273.444c-4.188,0.9-8.379,1.86-12.557-0.031c-3.702-1.676-7.172-3.605-8.367-7.928
		c7.483,2.621,13.803,0.824,19.256-4.833c4.586-4.757,9.322-9.372,14.025-14.016c2.666-2.632,6-2.841,8.317-0.611
		c2.482,2.389,2.354,5.615-0.455,8.457c-5.163,5.223-10.355,10.417-15.586,15.571C70.779,271.397,69.326,272.687,67.509,273.444z"/>
</g>
</svg>
