<svg width="22" height="22" viewBox="0 0 22 22" fill="currentColor" xmlns="http://www.w3.org/2000/svg">
<path fill-rule="evenodd" clip-rule="evenodd" d="M5.34999 14.98H16.05C19.0047 14.98 21.4 17.3752 21.4 20.33C21.4 20.9209 20.9209 21.4 20.33 21.4C19.7812 21.4 19.329 20.9869 19.2672 20.4547L19.2545 20.1413C19.1605 18.5187 17.8612 17.2194 16.2386 17.1254L16.05 17.12H5.34999C3.57716 17.12 2.14 18.5571 2.14 20.33C2.14 20.9209 1.66094 21.4 1.07 21.4C0.479054 21.4 0 20.9209 0 20.33C0 17.453 2.27086 15.1064 5.11792 14.9849L5.34999 14.98H16.05H5.34999ZM10.7 0C14.2456 0 17.12 2.87433 17.12 6.41999C17.12 9.96565 14.2456 12.84 10.7 12.84C7.15432 12.84 4.27999 9.96565 4.27999 6.41999C4.27999 2.87433 7.15432 0 10.7 0ZM10.7 2.14C8.3362 2.14 6.41999 4.05621 6.41999 6.41999C6.41999 8.78376 8.3362 10.7 10.7 10.7C13.0638 10.7 14.98 8.78376 14.98 6.41999C14.98 4.05621 13.0638 2.14 10.7 2.14Z" />
</svg>
