<svg width="26" height="24" viewBox="0 0 26 24" fill="currentColor" xmlns="http://www.w3.org/2000/svg">
<path fill-rule="evenodd" clip-rule="evenodd" d="M18.1848 0C22.292 0 25.6328 3.34088 25.6328 7.44929V16.3628C25.6328 20.47 22.292 23.8121 18.1848 23.8121H7.44929C3.34212 23.8121 0 20.47 0 16.3628V7.44929C0 3.34088 3.34212 0 7.44929 0H18.1848ZM18.1848 1.86294H7.44929C4.36922 1.86294 1.86294 4.36922 1.86294 7.44929V16.3628C1.86294 19.4429 4.36922 21.9492 7.44929 21.9492H18.1848C21.2649 21.9492 23.7699 19.4429 23.7699 16.3628V16.0151L19.674 16.0158C17.318 16.0158 15.4004 14.0995 15.3992 11.7447C15.3992 9.38749 17.3168 7.4699 19.674 7.46866L23.7699 7.46792V7.44929C23.7699 4.36922 21.2649 1.86294 18.1848 1.86294ZM23.7699 9.33086L19.674 9.3316C18.3439 9.33284 17.2621 10.4146 17.2621 11.7435C17.2621 13.0711 18.3451 14.1529 19.674 14.1529L23.7699 14.1522V9.33086ZM20.2424 10.735C20.7565 10.735 21.1738 11.1523 21.1738 11.6665C21.1738 12.1807 20.7565 12.598 20.2424 12.598H19.8549C19.3407 12.598 18.9234 12.1807 18.9234 11.6665C18.9234 11.1523 19.3407 10.735 19.8549 10.735H20.2424ZM13.2704 5.63615C13.7845 5.63615 14.2018 6.05344 14.2018 6.56762C14.2018 7.08179 13.7845 7.49909 13.2704 7.49909H6.56501C6.05084 7.49909 5.63354 7.08179 5.63354 6.56762C5.63354 6.05344 6.05084 5.63615 6.56501 5.63615H13.2704Z" />
</svg>
